PathFileType	3	(X/Y/Z)	D:\Jess\Healthy\Labelled\HA22\20251031\SRRun01.trc
DataRate	CameraRate	NumFrames	NumMarkers	Units	OrigDataRate	OrigDataStartFrame	OrigNumFrames
250.0	250.0	4	37	mm	250.0	35937	2501
Frame#	Time	C7			T10			CLAV			LSHO			RSHO			LASIS			RASIS			LPSIS			RPSIS			LILCR			RILCR			LGTR			LTHI			LLTHI			LLEP			LMEP			LPSH			LLSH			LDSH			LLMAL			LMMAL			LTOE			L5TH			LHEE			RGTR			RTHI			RLTHI			RLEP			RMEP			RPSH			RLSH			RDSH			RLMAL			RMMAL			RTOE			R5TH			RHEE			
		X1	Y1	Z1	X2	Y2	Z2	X3	Y3	Z3	X4	Y4	Z4	X5	Y5	Z5	X6	Y6	Z6	X7	Y7	Z7	X8	Y8	Z8	X9	Y9	Z9	X10	Y10	Z10	X11	Y11	Z11	X12	Y12	Z12	X13	Y13	Z13	X14	Y14	Z14	X15	Y15	Z15	X16	Y16	Z16	X17	Y17	Z17	X18	Y18	Z18	X19	Y19	Z19	X20	Y20	Z20	X21	Y21	Z21	X22	Y22	Z22	X23	Y23	Z23	X24	Y24	Z24	X25	Y25	Z25	X26	Y26	Z26	X27	Y27	Z27	X28	Y28	Z28	X29	Y29	Z29	X30	Y30	Z30	X31	Y31	Z31	X32	Y32	Z32	X33	Y33	Z33	X34	Y34	Z34	X35	Y35	Z35	X36	Y36	Z36	X37	Y37	Z37	

938	143.744	845.1654236031961	1596.213908392228	-895.1649120980782	864.3702972672004	1352.017349150683	-814.6584840939271	802.6609307520592	1511.109765111794	-1031.397728779964	676.8261687052528	1609.780092570212	-908.9582967369936	977.3438858058594	1596.271020641109	-1007.894092261598	731.6893334448522	1094.242701590983	-957.8108640384282	950.4408782554096	1083.375657751169	-986.2439833113365	839.4953736589225	1133.354845213147	-782.8053753773854	883.2982746876785	1135.962768969138	-790.6481782290989	689.181210043851	1175.649616241654	-876.5340166652794	994.2553111491778	1178.192678823997	-948.8481686765409	656.8485582923973	950.0179201586154	-913.149096736857	741.1921156832901	836.2506362753353	-1049.078934285818	681.272737075032	731.0499826484562	-966.432262138892	704.7528431597409	586.6918762597121	-1011.068666016915	nan	nan	nan	755.6971245736534	487.7205547078739	-1095.649167458618	706.2367623052161	360.4626278132174	-1032.098619358629	765.50058318656	286.4990397811201	-1108.481364097959	743.9221837087698	143.113732329697	-1071.57275648844	nan	nan	nan	759.7181051736302	101.2030745895747	-1239.852597861718	724.4220960620087	60.55534363439822	-1198.776286460612	813.2412040629749	104.7054125766508	-998.3306535824719	1028.73210786674	952.216617914249	-895.1777472996421	932.1404551536473	768.5847171488566	-956.1572609685178	999.316916758375	732.4648805515458	-848.420982641929	975.9915897151941	596.5469130561212	-767.6982814398402	nan	nan	nan	921.7964150804039	489.821563357996	-692.5098496079673	989.4139297199356	516.9381186472045	-569.429552182718	920.0492909351661	430.2452660082186	-503.1078227079276	963.1906207317653	423.188290552599	-353.2291154183206	nan	nan	nan	918.2498045946351	258.8262697063322	-335.7674942195092	963.5321719944473	288.3316400766032	-293.3877771426535	917.9099439660147	500.5152972932128	-302.5085188474672	
939	143.748	844.0221022710067	1592.908144163177	-894.8880945624456	863.7801788461555	1348.679287829836	-814.1338527087855	802.3648990523204	1507.502597211815	-1031.386489885418	675.6556499092248	1606.140905171794	-909.7049439876945	976.8079700773305	1592.995809292802	-1007.360612412353	731.5634770805849	1091.450237551919	-957.6409267876896	950.6424319475747	1080.679220132911	-986.0762604002424	839.4177687924888	1129.519464429455	-782.4391707372047	883.2038621733652	1132.111242282016	-790.3445695171583	689.0152483877762	1172.486647723712	-876.063692905544	994.6765152729207	1175.28367207626	-947.8976835050618	656.9050817628596	947.13164746667	-913.2879829621763	741.2412536514649	835.0694037730616	-1049.863683117085	681.6867424696712	728.7411636452765	-967.7820501318486	704.8899420551654	584.1023150647336	-1011.750984460218	nan	nan	nan	755.8132693915956	484.167917515787	-1095.041299246233	706.9785952361528	357.4666041187521	-1029.816711021643	766.4876104559733	282.7950204300337	-1104.99677511151	745.3635505457717	140.2733323307847	-1065.854707738395	nan	nan	nan	761.0470593406183	97.08787756155981	-1233.649145518113	725.4580657277105	57.23670129651715	-1191.864663166517	814.8323529185847	102.9543284824745	-992.0062738901804	1028.678683419532	948.645697595765	-895.7376170061311	932.9488974304154	765.5399352536967	-958.6212315231683	999.83140572599	728.4751581990622	-851.165858854378	976.2630562156126	592.0789757722004	-772.4650210629152	nan	nan	nan	922.3759429895724	486.8548248146407	-695.941607467581	989.4627032872747	517.6631325784194	-573.2827311818451	920.4013956832677	432.6233144391472	-504.8989790868847	963.3121486783035	430.1410222265094	-354.8359097407098	nan	nan	nan	919.6729684365254	265.8924230271913	-333.8437924113809	964.5767410774724	296.7567472507403	-292.0353769154211	917.2071678899482	508.2358741388936	-305.9887030231173	
940	143.752	842.8723078824185	1589.446139285288	-894.5789620079972	863.1846563933857	1345.179440723762	-813.6141421513661	802.0838813807035	1503.709251495074	-1031.401836469283	674.4608781003149	1602.329362442966	-910.4761090445022	976.3032837233781	1589.555657044252	-1006.780019375074	731.4054121347081	1088.536212556374	-957.4190406254432	950.8400426351063	1077.778362324158	-985.8752825513432	839.3692357496938	1125.477234111021	-782.0311531646964	883.1375547384185	1128.046153229977	-790.002444697316	688.8127294076662	1169.163074191005	-875.5428901620455	995.1120447348009	1172.083533610477	-946.972285102112	657.0039147197638	944.1544131886875	-913.4460470766517	741.2053236222364	833.9595150552692	-1050.841523051616	682.1765203066834	726.3579013126747	-969.1467681583466	705.1090919838167	581.3968288926575	-1012.471179123773	nan	nan	nan	756.0666269086414	480.4207415842897	-1094.352516947816	707.8277924261619	354.4092230467733	-1027.26360284974	767.6787382820061	278.9375016889331	-1101.025717350779	746.9670459709307	137.458842850447	-1059.3874992119	nan	nan	nan	762.4584821652262	93.10106617394364	-1226.656724849819	726.4750232933627	54.14309055320089	-1184.148293181021	816.5270299285029	101.159027539135	-984.8637998656872	1028.623799233257	944.8334524964297	-896.2897437320315	933.7565236601248	762.3657694101814	-961.0809774779149	1000.409420777881	724.2867662696269	-853.9755923984657	976.6330550976554	587.4719864333615	-777.3559227652547	nan	nan	nan	923.0168602751846	483.8144544778552	-699.5681502528503	989.5350253489808	518.2750019611354	-577.4045844667244	920.7776680400897	434.9090305451061	-507.057445989839	963.3872885727723	437.0205251247888	-356.9150748866826	nan	nan	nan	921.2449321523753	272.9327834791545	-332.5006528294959	965.7066334758028	305.175984533122	-291.2626542049542	916.3265491669307	515.7549234413918	-309.9459318844216	
941	143.756	841.7180110965668	1585.845769257408	-894.2403427705307	862.5789615614424	1341.533639911616	-813.098740725984	801.8180022333603	1499.740404069575	-1031.449342071902	673.2417658611312	1598.357830041839	-911.2696298946951	975.8347140585894	1585.963243544057	-1006.149481940669	731.216480951858	1085.506755455307	-957.13797581161	951.0299222556105	1074.678516841821	-985.6392644625405	839.3515377964688	1121.235366698428	-781.5751674269569	883.1024222939197	1123.774413132435	-789.61414121953	688.5745183207702	1165.66839588919	-874.9710211383965	995.5545096506704	1168.594207472728	-946.0783026517767	657.1405963277072	941.0775530815372	-913.6082263058141	741.0676899091096	832.847571172125	-1051.970438643513	682.7309764341819	723.8786494357954	-970.4706814489175	705.4165437926513	578.5733366882491	-1013.201434490335	nan	nan	nan	756.4772967946532	476.508017177658	-1093.568976434361	708.7898491761079	351.3240970716239	-1024.448480103678	769.0771677419581	274.9738411669744	-1096.586680227131	748.7253720710917	134.7180696414367	-1052.217619346632	nan	nan	nan	763.9387810019971	89.31578423062705	-1218.925434591061	727.4665659733226	51.33343149220995	-1175.692789906115	818.3131425344779	99.34298905538007	-976.9596721874075	1028.563918633347	940.7902342852384	-896.8407543442967	934.5626822866985	759.078049736626	-963.5410479731512	1001.043517172264	719.9120755805538	-856.8501127026499	977.0988181326521	582.7453672536994	-782.3678238002952	nan	nan	nan	923.7128801359989	480.7159076994472	-703.3886746813273	989.6326799464514	518.7726560642272	-581.790636192731	921.1753989230817	437.0961946904254	-509.5817239650589	963.417327190351	443.7987624042084	-359.4648304681908	nan	nan	nan	922.9471241908774	279.9215003197586	-331.7464142538713	966.9115984807551	313.5537543185061	-291.0814043316645	915.2853277196513	523.0477188230027	-314.3626391287455	
